<svg width="381" height="100" viewBox="0 0 381 100" fill="none" xmlns="http://www.w3.org/2000/svg">
<path d="M94.7618 93.1824H88.4518V36.8824H94.7618V43.3024C96.0418 41.1024 97.7418 39.3224 99.8618 37.9724C101.992 36.5924 104.512 35.9124 107.442 35.9124C110.172 35.9124 112.722 36.4224 115.102 37.4524C117.502 38.4824 119.602 39.9024 121.412 41.7324C123.212 43.5324 124.632 45.6224 125.652 48.0024C126.682 50.3824 127.192 52.9324 127.192 55.6624C127.192 58.3924 126.682 60.9524 125.652 63.3524C124.622 65.7524 123.212 67.8724 121.412 69.6924C119.612 71.4924 117.512 72.9124 115.102 73.9324C112.722 74.9624 110.172 75.4724 107.442 75.4724C104.512 75.4724 101.982 74.7924 99.8618 73.4424C97.7318 72.0624 96.0318 70.2724 94.7618 68.0724V93.1824ZM107.372 42.0224C104.942 42.0224 102.822 42.6324 100.992 43.8624C99.1618 45.0924 97.7518 46.7324 96.7518 48.7824C95.7718 50.8324 95.2918 53.1224 95.2918 55.6524C95.2918 58.1824 95.7818 60.4424 96.7518 62.5224C97.7518 64.6024 99.1518 66.2524 100.952 67.4724C102.782 68.7024 104.922 69.3124 107.372 69.3124C109.822 69.3124 112.022 68.7124 114.052 67.5124C116.082 66.2824 117.702 64.6424 118.932 62.5924C120.162 60.5124 120.772 58.2024 120.772 55.6524C120.772 53.1024 120.172 50.8724 118.972 48.8224C117.772 46.7424 116.152 45.0924 114.132 43.8724C112.102 42.6424 109.852 42.0324 107.372 42.0324V42.0224Z" fill="#FF572D"/>
<path d="M152.472 43.1924H143.952L143.912 74.4224H137.602L137.642 43.1924H131.182V36.8824H137.642L137.602 25.0924H143.912L143.952 36.8824H152.472V43.1924Z" fill="#FF572D"/>
<path d="M158.842 36.8824H165.152V74.4224H158.842V36.8824ZM162.062 30.7624C161.062 30.7624 160.222 30.4324 159.552 29.7824C158.872 29.1324 158.542 28.3224 158.542 27.3424C158.542 26.3624 158.882 25.5524 159.552 24.9024C160.232 24.2524 161.052 23.9224 162.032 23.9224C163.012 23.9224 163.832 24.2524 164.512 24.9024C165.192 25.5524 165.522 26.3624 165.522 27.3424C165.522 28.3224 165.182 29.1324 164.512 29.7824C163.862 30.4324 163.052 30.7624 162.072 30.7624H162.062Z" fill="#FF572D"/>
<path d="M185.242 75.1324C183.212 75.0524 181.242 74.6824 179.312 74.0024C177.412 73.3024 175.732 72.3624 174.282 71.1824C172.852 69.9824 171.822 68.6024 171.162 67.0524L176.572 64.7224C176.952 65.5724 177.622 66.3724 178.602 67.1224C179.582 67.8724 180.702 68.4724 181.982 68.9224C183.262 69.3724 184.542 69.6024 185.852 69.6024C187.232 69.6024 188.522 69.3924 189.722 68.9624C190.922 68.5324 191.902 67.9124 192.652 67.0824C193.432 66.2324 193.812 65.2224 193.812 64.0424C193.812 62.7924 193.382 61.8124 192.532 61.1124C191.702 60.3824 190.652 59.8224 189.382 59.4224C188.132 58.9924 186.852 58.5924 185.552 58.2224C182.972 57.5724 180.672 56.7924 178.642 55.8924C176.612 54.9624 175.012 53.8024 173.842 52.4024C172.692 50.9724 172.112 49.1624 172.112 46.9624C172.112 44.6324 172.752 42.6224 174.022 40.9224C175.322 39.2224 177.022 37.9024 179.122 36.9824C181.222 36.0624 183.472 35.5924 185.882 35.5924C188.912 35.5924 191.672 36.2424 194.182 37.5424C196.682 38.8424 198.552 40.6124 199.772 42.8324L194.702 45.8024C194.272 44.9024 193.622 44.1124 192.752 43.4424C191.872 42.7424 190.872 42.1924 189.752 41.7924C188.622 41.3924 187.472 41.1824 186.302 41.1524C184.852 41.1024 183.482 41.2924 182.212 41.7124C180.962 42.1424 179.952 42.7924 179.172 43.6624C178.422 44.5124 178.042 45.5724 178.042 46.8524C178.042 48.1324 178.442 49.0524 179.242 49.7024C180.072 50.3524 181.132 50.8824 182.432 51.2824C183.762 51.6624 185.202 52.0924 186.752 52.5924C189.032 53.3224 191.152 54.1524 193.132 55.1024C195.112 56.0524 196.702 57.2424 197.902 58.6724C199.132 60.1024 199.732 61.8624 199.702 63.9624C199.702 66.2624 199.012 68.2824 197.642 70.0024C196.262 71.7024 194.472 73.0024 192.272 73.9024C190.092 74.8024 187.752 75.2024 185.252 75.1024L185.242 75.1324Z" fill="#FF572D"/>
<path d="M222.272 75.3924C218.822 75.3924 215.662 74.5024 212.812 72.7224C209.982 70.9424 207.722 68.5724 206.022 65.5924C204.342 62.5924 203.512 59.2724 203.512 55.6424C203.512 52.8924 204.002 50.3224 204.972 47.9524C205.952 45.5524 207.282 43.4524 208.992 41.6424C210.722 39.8124 212.722 38.3924 215.002 37.3624C217.282 36.3324 219.702 35.8224 222.282 35.8224C225.112 35.8224 227.702 36.4024 230.052 37.5524C232.432 38.6824 234.452 40.2524 236.132 42.2824C237.832 44.3124 239.102 46.6624 239.922 49.3424C240.772 52.0224 241.082 54.8824 240.862 57.9424H210.232C210.532 60.0724 211.232 61.9724 212.332 63.6524C213.432 65.3024 214.832 66.6224 216.532 67.5924C218.262 68.5724 220.172 69.0724 222.272 69.0924C224.522 69.0924 226.562 68.5124 228.392 67.3624C230.222 66.1824 231.692 64.5824 232.822 62.5624L239.242 64.0624C237.742 67.3924 235.472 70.1224 232.452 72.2424C229.422 74.3424 226.032 75.3924 222.282 75.3924H222.272ZM210.042 52.9824H234.512C234.312 50.8824 233.632 48.9624 232.482 47.2424C231.332 45.4924 229.872 44.0924 228.092 43.0424C226.312 41.9924 224.372 41.4624 222.272 41.4624C220.172 41.4624 218.242 41.9724 216.492 43.0024C214.742 44.0324 213.292 45.4124 212.142 47.1724C211.012 48.9024 210.312 50.8424 210.042 52.9924V52.9824Z" fill="#FF572D"/>
<path d="M280.362 51.0724V74.4224H274.052V52.4624C274.052 50.5624 273.592 48.8324 272.662 47.2824C271.732 45.7324 270.502 44.5024 268.942 43.6024C267.392 42.6724 265.662 42.2124 263.762 42.2124C261.862 42.2124 260.162 42.6724 258.582 43.6024C257.032 44.5024 255.792 45.7324 254.862 47.2824C253.932 48.8324 253.472 50.5624 253.472 52.4624V74.4224H247.162V36.8824H253.472V41.5724C254.802 39.8224 256.472 38.4324 258.502 37.4024C260.532 36.3524 262.732 35.8224 265.112 35.8224C267.912 35.8224 270.472 36.5124 272.772 37.8824C275.102 39.2324 276.942 41.0624 278.292 43.3624C279.672 45.6624 280.352 48.2324 280.352 51.0524L280.362 51.0724Z" fill="#FF572D"/>
<path d="M312.992 64.5124L318.622 67.5524C316.922 69.9324 314.752 71.8324 312.132 73.2624C309.532 74.6924 306.702 75.4024 303.652 75.4024C300.202 75.4024 297.042 74.5124 294.192 72.7324C291.362 70.9524 289.102 68.5824 287.402 65.6024C285.722 62.6024 284.892 59.2824 284.892 55.6524C284.892 52.9024 285.382 50.3324 286.352 47.9624C287.332 45.5624 288.662 43.4624 290.372 41.6524C292.102 39.8224 294.102 38.4024 296.382 37.3724C298.662 36.3424 301.082 35.8324 303.662 35.8324C306.712 35.8324 309.542 36.5424 312.142 37.9724C314.772 39.4024 316.932 41.3124 318.632 43.7124L313.002 46.7524C311.802 45.2724 310.372 44.1324 308.722 43.3324C307.072 42.5324 305.382 42.1324 303.652 42.1324C301.322 42.1324 299.212 42.7624 297.312 44.0124C295.432 45.2424 293.942 46.8824 292.842 48.9324C291.742 50.9824 291.192 53.2224 291.192 55.6524C291.192 58.0824 291.742 60.3224 292.842 62.3724C293.972 64.4024 295.472 66.0224 297.342 67.2524C299.242 68.4824 301.342 69.0924 303.652 69.0924C305.502 69.0924 307.242 68.6624 308.872 67.8124C310.502 66.9624 311.872 65.8624 313.002 64.5124H312.992Z" fill="#FF572D"/>
<path d="M341.262 75.3924C337.812 75.3924 334.652 74.5024 331.802 72.7224C328.972 70.9424 326.712 68.5724 325.012 65.5924C323.332 62.5924 322.502 59.2724 322.502 55.6424C322.502 52.8924 322.992 50.3224 323.962 47.9524C324.942 45.5524 326.272 43.4524 327.982 41.6424C329.712 39.8124 331.712 38.3924 333.992 37.3624C336.272 36.3324 338.692 35.8224 341.272 35.8224C344.102 35.8224 346.692 36.4024 349.042 37.5524C351.422 38.6824 353.442 40.2524 355.122 42.2824C356.822 44.3124 358.092 46.6624 358.912 49.3424C359.762 52.0224 360.072 54.8824 359.852 57.9424H329.222C329.522 60.0724 330.222 61.9724 331.322 63.6524C332.422 65.3024 333.822 66.6224 335.522 67.5924C337.252 68.5724 339.162 69.0724 341.262 69.0924C343.512 69.0924 345.552 68.5124 347.382 67.3624C349.212 66.1824 350.682 64.5824 351.812 62.5624L358.232 64.0624C356.732 67.3924 354.462 70.1224 351.442 72.2424C348.412 74.3424 345.022 75.3924 341.272 75.3924H341.262ZM329.022 52.9824H353.492C353.292 50.8824 352.612 48.9624 351.462 47.2424C350.312 45.4924 348.852 44.0924 347.072 43.0424C345.292 41.9924 343.352 41.4624 341.252 41.4624C339.152 41.4624 337.222 41.9724 335.472 43.0024C333.722 44.0324 332.272 45.4124 331.122 47.1724C329.992 48.9024 329.292 50.8424 329.022 52.9924V52.9824Z" fill="#FF572D"/>
<path d="M75.5718 7.10238C88.6418 5.46238 91.2418 24.0224 80.4818 27.2424C77.2318 28.2124 69.5818 27.7124 72.7818 33.9124C74.0718 36.4124 75.9218 38.3624 77.0618 41.2824C86.5018 65.5124 60.7518 88.5824 37.8018 76.3624C9.27181 61.1724 25.1218 16.4224 58.6818 24.7224C61.0218 25.3024 62.6118 26.7724 65.0518 25.5424C68.7318 23.7024 66.2818 19.8524 66.3618 16.7124C66.5018 11.8324 70.8618 7.69238 75.5718 7.10238ZM66.4018 51.6424C66.4018 43.1224 59.4918 36.2224 50.9818 36.2224C42.4718 36.2224 35.5618 43.1324 35.5618 51.6424C35.5618 60.1524 42.4718 67.0624 50.9818 67.0624C59.4918 67.0624 66.4018 60.1524 66.4018 51.6424Z" fill="#FF572D"/>
</svg>
