<svg width="165" height="29" viewBox="0 0 165 29" fill="none" xmlns="http://www.w3.org/2000/svg">
<path d="M11.345 6.8095C12.8231 4.15883 13.5616 2.8335 14.6665 2.8335C15.7713 2.8335 16.5098 4.15883 17.988 6.8095L18.3706 7.4955C18.7906 8.24916 19.0006 8.626 19.3273 8.8745C19.654 9.123 20.0623 9.21516 20.879 9.3995L21.621 9.5675C24.491 10.2173 25.9248 10.5417 26.2666 11.6395C26.6073 12.7362 25.6296 13.8807 23.6731 16.1685L23.1668 16.76C22.6115 17.4098 22.3326 17.7353 22.2078 18.1367C22.083 18.5392 22.125 18.9732 22.209 19.84L22.286 20.6298C22.5811 23.683 22.7293 25.209 21.8356 25.8868C20.942 26.5647 19.598 25.9463 16.9123 24.7097L16.2158 24.39C15.4528 24.0377 15.0713 23.8627 14.6665 23.8627C14.2616 23.8627 13.8801 24.0377 13.1171 24.39L12.4218 24.7097C9.73495 25.9463 8.39095 26.5647 7.49845 25.888C6.60362 25.209 6.75179 23.683 7.04695 20.6298L7.12395 19.8412C7.20795 18.9732 7.24995 18.5392 7.12395 18.1378C7.00029 17.7353 6.72145 17.4098 6.16612 16.7612L5.65979 16.1685C3.70329 13.8818 2.72562 12.7373 3.06629 11.6395C3.40695 10.5417 4.84312 10.2162 7.71312 9.5675L8.45512 9.3995C9.27062 9.21516 9.67779 9.123 10.0056 8.8745C10.3335 8.626 10.5423 8.24916 10.9623 7.4955L11.345 6.8095Z" fill="#FF572D"/>
<path d="M45.345 6.8095C46.8231 4.15883 47.5616 2.8335 48.6665 2.8335C49.7713 2.8335 50.5098 4.15883 51.988 6.8095L52.3706 7.4955C52.7906 8.24916 53.0006 8.626 53.3273 8.8745C53.654 9.123 54.0623 9.21516 54.879 9.3995L55.621 9.5675C58.491 10.2173 59.9248 10.5417 60.2666 11.6395C60.6073 12.7362 59.6296 13.8807 57.6731 16.1685L57.1668 16.76C56.6115 17.4098 56.3326 17.7353 56.2078 18.1367C56.083 18.5392 56.125 18.9732 56.209 19.84L56.286 20.6298C56.5811 23.683 56.7293 25.209 55.8356 25.8868C54.942 26.5647 53.598 25.9463 50.9123 24.7097L50.2158 24.39C49.4528 24.0377 49.0713 23.8627 48.6665 23.8627C48.2616 23.8627 47.8801 24.0377 47.1171 24.39L46.4218 24.7097C43.735 25.9463 42.391 26.5647 41.4985 25.888C40.6036 25.209 40.7518 23.683 41.047 20.6298L41.124 19.8412C41.208 18.9732 41.25 18.5392 41.124 18.1378C41.0003 17.7353 40.7215 17.4098 40.1661 16.7612L39.6598 16.1685C37.7033 13.8818 36.7256 12.7373 37.0663 11.6395C37.407 10.5417 38.8431 10.2162 41.7131 9.5675L42.4551 9.3995C43.2706 9.21516 43.6778 9.123 44.0056 8.8745C44.3335 8.626 44.5423 8.24916 44.9623 7.4955L45.345 6.8095Z" fill="#FF572D"/>
<path d="M79.345 6.8095C80.8231 4.15883 81.5616 2.8335 82.6665 2.8335C83.7713 2.8335 84.5098 4.15883 85.988 6.8095L86.3706 7.4955C86.7906 8.24916 87.0006 8.626 87.3273 8.8745C87.654 9.123 88.0623 9.21516 88.879 9.3995L89.621 9.5675C92.491 10.2173 93.9248 10.5417 94.2666 11.6395C94.6073 12.7362 93.6296 13.8807 91.6731 16.1685L91.1668 16.76C90.6115 17.4098 90.3326 17.7353 90.2078 18.1367C90.083 18.5392 90.125 18.9732 90.209 19.84L90.286 20.6298C90.5811 23.683 90.7293 25.209 89.8356 25.8868C88.942 26.5647 87.598 25.9463 84.9123 24.7097L84.2158 24.39C83.4528 24.0377 83.0713 23.8627 82.6665 23.8627C82.2616 23.8627 81.8801 24.0377 81.1171 24.39L80.4218 24.7097C77.735 25.9463 76.391 26.5647 75.4985 25.888C74.6036 25.209 74.7518 23.683 75.047 20.6298L75.124 19.8412C75.208 18.9732 75.25 18.5392 75.124 18.1378C75.0003 17.7353 74.7215 17.4098 74.1661 16.7612L73.6598 16.1685C71.7033 13.8818 70.7256 12.7373 71.0663 11.6395C71.407 10.5417 72.8431 10.2162 75.7131 9.5675L76.4551 9.3995C77.2706 9.21516 77.6778 9.123 78.0056 8.8745C78.3335 8.626 78.5423 8.24916 78.9623 7.4955L79.345 6.8095Z" fill="#FF572D"/>
<path d="M113.345 6.8095C114.823 4.15883 115.562 2.8335 116.666 2.8335C117.771 2.8335 118.51 4.15883 119.988 6.8095L120.371 7.4955C120.791 8.24916 121.001 8.626 121.327 8.8745C121.654 9.123 122.062 9.21516 122.879 9.3995L123.621 9.5675C126.491 10.2173 127.925 10.5417 128.267 11.6395C128.607 12.7362 127.63 13.8807 125.673 16.1685L125.167 16.76C124.611 17.4098 124.333 17.7353 124.208 18.1367C124.083 18.5392 124.125 18.9732 124.209 19.84L124.286 20.6298C124.581 23.683 124.729 25.209 123.836 25.8868C122.942 26.5647 121.598 25.9463 118.912 24.7097L118.216 24.39C117.453 24.0377 117.071 23.8627 116.666 23.8627C116.262 23.8627 115.88 24.0377 115.117 24.39L114.422 24.7097C111.735 25.9463 110.391 26.5647 109.498 25.888C108.604 25.209 108.752 23.683 109.047 20.6298L109.124 19.8412C109.208 18.9732 109.25 18.5392 109.124 18.1378C109 17.7353 108.721 17.4098 108.166 16.7612L107.66 16.1685C105.703 13.8818 104.726 12.7373 105.066 11.6395C105.407 10.5417 106.843 10.2162 109.713 9.5675L110.455 9.3995C111.271 9.21516 111.678 9.123 112.006 8.8745C112.333 8.626 112.542 8.24916 112.962 7.4955L113.345 6.8095Z" fill="#FF572D"/>
<path d="M147.345 6.8095C148.823 4.15883 149.562 2.8335 150.666 2.8335C151.771 2.8335 152.51 4.15883 153.988 6.8095L154.371 7.4955C154.791 8.24916 155.001 8.626 155.327 8.8745C155.654 9.123 156.062 9.21516 156.879 9.3995L157.621 9.5675C160.491 10.2173 161.925 10.5417 162.267 11.6395C162.607 12.7362 161.63 13.8807 159.673 16.1685L159.167 16.76C158.611 17.4098 158.333 17.7353 158.208 18.1367C158.083 18.5392 158.125 18.9732 158.209 19.84L158.286 20.6298C158.581 23.683 158.729 25.209 157.836 25.8868C156.942 26.5647 155.598 25.9463 152.912 24.7097L152.216 24.39C151.453 24.0377 151.071 23.8627 150.666 23.8627C150.262 23.8627 149.88 24.0377 149.117 24.39L148.422 24.7097C145.735 25.9463 144.391 26.5647 143.498 25.888C142.604 25.209 142.752 23.683 143.047 20.6298L143.124 19.8412C143.208 18.9732 143.25 18.5392 143.124 18.1378C143 17.7353 142.721 17.4098 142.166 16.7612L141.66 16.1685C139.703 13.8818 138.726 12.7373 139.066 11.6395C139.407 10.5417 140.843 10.2162 143.713 9.5675L144.455 9.3995C145.271 9.21516 145.678 9.123 146.006 8.8745C146.333 8.626 146.542 8.24916 146.962 7.4955L147.345 6.8095Z" fill="#FF572D" fill-opacity="0.15"/>
</svg>
