<svg width="165" height="28" viewBox="0 0 165 28" fill="none" xmlns="http://www.w3.org/2000/svg">
<path d="M11.0117 6.3095C12.4899 3.65883 13.2284 2.3335 14.3332 2.3335C15.438 2.3335 16.1765 3.65883 17.6547 6.3095L18.0374 6.9955C18.4574 7.74916 18.6674 8.126 18.994 8.3745C19.3207 8.623 19.729 8.71516 20.5457 8.8995L21.2877 9.0675C24.1577 9.71733 25.5915 10.0417 25.9334 11.1395C26.274 12.2362 25.2964 13.3807 23.3399 15.6685L22.8335 16.26C22.2782 16.9098 21.9994 17.2353 21.8745 17.6367C21.7497 18.0392 21.7917 18.4732 21.8757 19.34L21.9527 20.1298C22.2479 23.183 22.396 24.709 21.5024 25.3868C20.6087 26.0647 19.2647 25.4463 16.579 24.2097L15.8825 23.89C15.1195 23.5377 14.738 23.3627 14.3332 23.3627C13.9284 23.3627 13.5469 23.5377 12.7839 23.89L12.0885 24.2097C9.4017 25.4463 8.0577 26.0647 7.1652 25.388C6.27037 24.709 6.41853 23.183 6.7137 20.1298L6.7907 19.3412C6.8747 18.4732 6.9167 18.0392 6.7907 17.6378C6.66703 17.2353 6.3882 16.9098 5.83287 16.2612L5.32653 15.6685C3.37003 13.3818 2.39237 12.2373 2.73303 11.1395C3.0737 10.0417 4.50987 9.71616 7.37987 9.0675L8.12187 8.8995C8.93737 8.71516 9.34453 8.623 9.67237 8.3745C10.0002 8.126 10.209 7.74916 10.629 6.9955L11.0117 6.3095Z" fill="#FF572D"/>
<path d="M45.0117 6.3095C46.4899 3.65883 47.2284 2.3335 48.3332 2.3335C49.438 2.3335 50.1765 3.65883 51.6547 6.3095L52.0374 6.9955C52.4574 7.74916 52.6674 8.126 52.994 8.3745C53.3207 8.623 53.729 8.71516 54.5457 8.8995L55.2877 9.0675C58.1577 9.71733 59.5915 10.0417 59.9334 11.1395C60.274 12.2362 59.2964 13.3807 57.3399 15.6685L56.8335 16.26C56.2782 16.9098 55.9994 17.2353 55.8745 17.6367C55.7497 18.0392 55.7917 18.4732 55.8757 19.34L55.9527 20.1298C56.2479 23.183 56.396 24.709 55.5024 25.3868C54.6087 26.0647 53.2647 25.4463 50.579 24.2097L49.8825 23.89C49.1195 23.5377 48.738 23.3627 48.3332 23.3627C47.9284 23.3627 47.5469 23.5377 46.7839 23.89L46.0885 24.2097C43.4017 25.4463 42.0577 26.0647 41.1652 25.388C40.2704 24.709 40.4185 23.183 40.7137 20.1298L40.7907 19.3412C40.8747 18.4732 40.9167 18.0392 40.7907 17.6378C40.667 17.2353 40.3882 16.9098 39.8329 16.2612L39.3265 15.6685C37.37 13.3818 36.3924 12.2373 36.733 11.1395C37.0737 10.0417 38.5099 9.71616 41.3799 9.0675L42.1219 8.8995C42.9374 8.71516 43.3445 8.623 43.6724 8.3745C44.0002 8.126 44.209 7.74916 44.629 6.9955L45.0117 6.3095Z" fill="#FF572D"/>
<path d="M79.0117 6.3095C80.4899 3.65883 81.2284 2.3335 82.3332 2.3335C83.438 2.3335 84.1765 3.65883 85.6547 6.3095L86.0374 6.9955C86.4574 7.74916 86.6674 8.126 86.994 8.3745C87.3207 8.623 87.729 8.71516 88.5457 8.8995L89.2877 9.0675C92.1577 9.71733 93.5915 10.0417 93.9334 11.1395C94.274 12.2362 93.2964 13.3807 91.3399 15.6685L90.8335 16.26C90.2782 16.9098 89.9994 17.2353 89.8745 17.6367C89.7497 18.0392 89.7917 18.4732 89.8757 19.34L89.9527 20.1298C90.2479 23.183 90.396 24.709 89.5024 25.3868C88.6087 26.0647 87.2647 25.4463 84.579 24.2097L83.8825 23.89C83.1195 23.5377 82.738 23.3627 82.3332 23.3627C81.9284 23.3627 81.5469 23.5377 80.7839 23.89L80.0885 24.2097C77.4017 25.4463 76.0577 26.0647 75.1652 25.388C74.2704 24.709 74.4185 23.183 74.7137 20.1298L74.7907 19.3412C74.8747 18.4732 74.9167 18.0392 74.7907 17.6378C74.667 17.2353 74.3882 16.9098 73.8329 16.2612L73.3265 15.6685C71.37 13.3818 70.3924 12.2373 70.733 11.1395C71.0737 10.0417 72.5099 9.71616 75.3799 9.0675L76.1219 8.8995C76.9374 8.71516 77.3445 8.623 77.6724 8.3745C78.0002 8.126 78.209 7.74916 78.629 6.9955L79.0117 6.3095Z" fill="#FF572D"/>
<path d="M113.012 6.3095C114.49 3.65883 115.228 2.3335 116.333 2.3335C117.438 2.3335 118.177 3.65883 119.655 6.3095L120.037 6.9955C120.457 7.74916 120.667 8.126 120.994 8.3745C121.321 8.623 121.729 8.71516 122.546 8.8995L123.288 9.0675C126.158 9.71733 127.592 10.0417 127.933 11.1395C128.274 12.2362 127.296 13.3807 125.34 15.6685L124.834 16.26C124.278 16.9098 123.999 17.2353 123.875 17.6367C123.75 18.0392 123.792 18.4732 123.876 19.34L123.953 20.1298C124.248 23.183 124.396 24.709 123.502 25.3868C122.609 26.0647 121.265 25.4463 118.579 24.2097L117.883 23.89C117.12 23.5377 116.738 23.3627 116.333 23.3627C115.928 23.3627 115.547 23.5377 114.784 23.89L114.089 24.2097C111.402 25.4463 110.058 26.0647 109.165 25.388C108.27 24.709 108.419 23.183 108.714 20.1298L108.791 19.3412C108.875 18.4732 108.917 18.0392 108.791 17.6378C108.667 17.2353 108.388 16.9098 107.833 16.2612L107.327 15.6685C105.37 13.3818 104.392 12.2373 104.733 11.1395C105.074 10.0417 106.51 9.71616 109.38 9.0675L110.122 8.8995C110.937 8.71516 111.345 8.623 111.672 8.3745C112 8.126 112.209 7.74916 112.629 6.9955L113.012 6.3095Z" fill="#FF572D"/>
<path d="M147.012 6.3095C148.49 3.65883 149.228 2.3335 150.333 2.3335C151.438 2.3335 152.177 3.65883 153.655 6.3095L154.037 6.9955C154.457 7.74916 154.667 8.126 154.994 8.3745C155.321 8.623 155.729 8.71516 156.546 8.8995L157.288 9.0675C160.158 9.71733 161.592 10.0417 161.933 11.1395C162.274 12.2362 161.296 13.3807 159.34 15.6685L158.834 16.26C158.278 16.9098 157.999 17.2353 157.875 17.6367C157.75 18.0392 157.792 18.4732 157.876 19.34L157.953 20.1298C158.248 23.183 158.396 24.709 157.502 25.3868C156.609 26.0647 155.265 25.4463 152.579 24.2097L151.883 23.89C151.12 23.5377 150.738 23.3627 150.333 23.3627C149.928 23.3627 149.547 23.5377 148.784 23.89L148.089 24.2097C145.402 25.4463 144.058 26.0647 143.165 25.388C142.27 24.709 142.419 23.183 142.714 20.1298L142.791 19.3412C142.875 18.4732 142.917 18.0392 142.791 17.6378C142.667 17.2353 142.388 16.9098 141.833 16.2612L141.327 15.6685C139.37 13.3818 138.392 12.2373 138.733 11.1395C139.074 10.0417 140.51 9.71616 143.38 9.0675L144.122 8.8995C144.937 8.71516 145.345 8.623 145.672 8.3745C146 8.126 146.209 7.74916 146.629 6.9955L147.012 6.3095Z" fill="#FF572D"/>
</svg>
